<svg width="20" height="19" viewBox="0 0 20 19" fill="none" xmlns="http://www.w3.org/2000/svg">
<path d="M11.79 0.140003L11.22 0.0600032C9.50693 -0.187339 7.75885 0.0573586 6.17954 0.765569C4.60023 1.47378 3.25476 2.61632 2.3 4.06C1.28416 5.43998 0.678585 7.07874 0.552979 8.78769C0.427373 10.4966 0.786836 12.2063 1.59 13.72C1.6722 13.8717 1.72337 14.0383 1.74054 14.2099C1.75771 14.3816 1.74053 14.555 1.69 14.72C1.28 16.13 0.9 17.55 0.5 19.04L1 18.89C2.35 18.53 3.7 18.17 5.05 17.84C5.33494 17.7808 5.63112 17.8086 5.9 17.92C7.1112 18.5111 8.43482 18.8363 9.78205 18.8738C11.1293 18.9113 12.4689 18.6601 13.7111 18.1372C14.9533 17.6143 16.0692 16.8318 16.9841 15.8421C17.899 14.8524 18.5915 13.6785 19.0153 12.3991C19.4392 11.1198 19.5844 9.76454 19.4414 8.42441C19.2983 7.08428 18.8703 5.79024 18.1859 4.62916C17.5016 3.46807 16.5769 2.4668 15.4737 1.69253C14.3706 0.918258 13.1146 0.388908 11.79 0.140003ZM14.31 13.26C13.9466 13.5854 13.5034 13.8086 13.0256 13.907C12.5478 14.0054 12.0524 13.9754 11.59 13.82C9.49456 13.23 7.67661 11.9152 6.46 10.11C5.99529 9.47153 5.6217 8.77148 5.35 8.03C5.20285 7.59978 5.17632 7.13747 5.27327 6.69324C5.37023 6.249 5.58698 5.83979 5.9 5.51C6.05239 5.31552 6.25981 5.17143 6.49526 5.09652C6.7307 5.02161 6.98325 5.01934 7.22 5.09C7.42 5.14 7.56 5.43 7.74 5.65C7.886 6.063 8.057 6.467 8.25 6.86C8.39642 7.06051 8.45758 7.3108 8.42011 7.55624C8.38263 7.80168 8.24958 8.02232 8.05 8.17C7.6 8.57 7.67 8.9 7.99 9.35C8.69745 10.3692 9.6736 11.1722 10.81 11.67C11.13 11.81 11.37 11.84 11.58 11.51C11.67 11.38 11.79 11.27 11.89 11.15C12.47 10.42 12.29 10.43 13.21 10.83C13.503 10.953 13.787 11.097 14.06 11.26C14.33 11.42 14.74 11.59 14.8 11.83C14.8577 12.0904 14.8425 12.3616 14.7561 12.6139C14.6696 12.8662 14.5153 13.0898 14.31 13.26Z" fill="white"/>
</svg>
