<?xml version="1.0" ?><svg viewBox="0 0 64 64" xmlns="http://www.w3.org/2000/svg"><g id="Outline"><g data-name="Outline" id="Outline-2"><circle cx="32" cy="57" r="1"/><path d="M42.63,45.38a23,23,0,1,0-21.26,0C8.51,46.34,2,49.07,2,53.5c0,7,16.31,8.5,30,8.5s30-1.47,30-8.5C62,49.07,55.49,46.34,42.63,45.38ZM11,25A21,21,0,1,1,40.72,44.1a.86.86,0,0,0-.29.21L32.66,52.1a1,1,0,0,1-1.27,0l-2.8-2.8h0l-5-5a.86.86,0,0,0-.29-.21A21.06,21.06,0,0,1,11,25ZM32,60C14.73,60,4,57.51,4,53.5c0-3.28,7.17-5.55,19.67-6.27l1.94,2C19.33,49.53,11,50.56,11,53.5c0,3.33,10.62,4.2,17,4.43h0a1,1,0,0,0,0-2c-9.57-.34-14-1.72-14.91-2.43.88-.7,5.19-2,14.41-2.41L30,53.6a2.92,2.92,0,0,0,1.95.73,3,3,0,0,0,2-.78l2.46-2.46C45.7,51.46,50,52.8,50.89,53.5c-.89.71-5.33,2.09-14.91,2.43a1,1,0,0,0,0,2h0c6.33-.23,17-1.1,17-4.43,0-2.94-8.33-4-14.61-4.32l1.94-2C52.83,48,60,50.22,60,53.5,60,57.51,49.27,60,32,60Z"/><path d="M51,25A19,19,0,1,0,32,44,19,19,0,0,0,51,25ZM15,25A17,17,0,1,1,32,42,17,17,0,0,1,15,25Z"/><path d="M42,20.5a8,8,0,0,0-8-8H27a3,3,0,0,0-3,3v19a3,3,0,0,0,6,0v-6h4A8,8,0,0,0,42,20.5Zm-13,6a1,1,0,0,0-1,1v7a1,1,0,0,1-2,0v-19a1,1,0,0,1,1-1h7a6,6,0,0,1,0,12Z"/><path d="M38,20.5a4,4,0,0,0-4-4H29a1,1,0,0,0-1,1v6a1,1,0,0,0,1,1h5A4,4,0,0,0,38,20.5Zm-8-2h4a2,2,0,0,1,0,4H30Z"/></g></g></svg>